<svg xmlns="http://www.w3.org/2000/svg" width="1254" height="1254" viewBox="240 280 774 774" role="img" aria-label="White paw print on black background">
  <rect width="1254" height="1254" fill="#000"/>
  <ellipse cx="715.87" cy="469.16" rx="72.02" ry="84.59" transform="rotate(0.69 715.87 469.16)" fill="#fff"/>
  <ellipse cx="538.58" cy="469.17" rx="72.18" ry="84.57" transform="rotate(179.92 538.58 469.17)" fill="#fff"/>
  <ellipse cx="847.15" cy="589.47" rx="66.6" ry="79.11" transform="rotate(19.79 847.15 589.47)" fill="#fff"/>
  <ellipse cx="406.48" cy="589.51" rx="66.61" ry="79.05" transform="rotate(160.63 406.48 589.51)" fill="#fff"/>
  <path d="M428 751C423.17 766.67 424.5 780.83 427 794C429.5 807.17 435.5 819.83 443 830C450.5 840.17 461.17 849 472 855C482.83 861 492.83 865.67 508 866C523.17 866.33 543.17 866 563 857C582.83 848 604.83 811.67 627 812C649.17 812.33 679.67 850 696 859C712.33 868 714 865.33 725 866C736 866.67 747.83 868.83 762 863C776.17 857.17 799.83 840.17 810 831C820.17 821.83 819.83 817 823 808C826.17 799 829.5 789.33 829 777C828.5 764.67 825.17 746.83 820 734C814.83 721.17 810.67 712.83 798 700C785.33 687.17 763 674.83 744 657C725 639.17 702.17 607.67 684 593C665.83 578.33 648.5 572.17 635 569C621.5 565.83 614 569.5 603 574C592 578.5 584.5 582.17 569 596C553.5 609.83 528.83 639.67 510 657C491.17 674.33 469.67 684.33 456 700C442.33 715.67 432.83 735.33 428 751Z" fill="#fff"/>
</svg>
