<svg xmlns="http://www.w3.org/2000/svg" width="1254" height="1254" viewBox="70 70 1114 1114" role="img" aria-label="Black circle with white paw print">
  <ellipse cx="626.79" cy="623.13" rx="528.07" ry="531.16" transform="rotate(178.09 626.79 623.13)" fill="#000"/>
  <ellipse cx="528.38" cy="451.83" rx="81.18" ry="96.49" transform="rotate(179.8 528.38 451.83)" fill="#fff"/>
  <ellipse cx="723.96" cy="451.89" rx="81.13" ry="96.52" transform="rotate(179.8 723.96 451.89)" fill="#fff"/>
  <ellipse cx="382.26" cy="586.96" rx="74.98" ry="89.17" transform="rotate(161.15 382.26 586.96)" fill="#fff"/>
  <ellipse cx="869.99" cy="586.97" rx="75.25" ry="89.16" transform="rotate(19.27 869.99 586.97)" fill="#fff"/>
  <path d="M406 763C411.17 746.5 418.67 729.17 434 712C449.33 694.83 477.83 678.83 498 660C518.17 641.17 538.33 614.17 555 599C571.67 583.83 584.83 575 598 569C611.17 563 619.17 559.83 634 563C648.83 566.17 666 571 687 588C708 605 738.17 644.33 760 665C781.83 685.67 804 696.83 818 712C832 727.17 838.67 740.17 844 756C849.33 771.83 852.67 789.83 850 807C847.33 824.17 840.33 844.67 828 859C815.67 873.33 790.5 886.67 776 893C761.5 899.33 752.67 897.5 741 897C729.33 896.5 718 894.17 706 890C694 885.83 682.33 880.83 669 872C655.67 863.17 644.33 834.83 626 837C607.67 839.17 580.17 875 559 885C537.83 895 516.17 897 499 897C481.83 897 469.33 892.5 456 885C442.67 877.5 427.83 864.33 419 852C410.17 839.67 405.17 825.83 403 811C400.83 796.17 400.83 779.5 406 763Z" fill="#fff"/>
</svg>
